<svg width="64" height="32" viewBox="0 0 64 32" xmlns="http://www.w3.org/2000/svg" xmlns:xlink="http://www.w3.org/1999/xlink"><view id="folder" viewBox="0 0 32 32"/><svg width="32" height="32" data-icon="folder" class="aiconic aiconic-folder aiconic-size-md" viewBox="0 0 32 32" xmlns="http://www.w3.org/2000/svg"><title class="aiconic-metadata">Folder</title><defs><clipPath id="aa"><path d="M0 7h32v20H0z"/></clipPath></defs><g class="aiconic-container" data-width="32" data-height="27" transform="translate(0 2)"><path d="M.5 5h10a.5.5 0 0 0 .5-.5v-4a.5.5 0 0 0-.5-.5H.5a.5.5 0 0 0-.5.5v4a.5.5 0 0 0 .5.5z" class="aiconic-folder-top aiconic-folder-top-tag aiconic-property-fill"/><path class="aiconic-folder-top aiconic-property-fill" d="M0 3.002h32.001V6H0z"/><path clip-path="url(#aa)" d="M31 27H1a1 1 0 0 1-1-1V7a1 1 0 0 1 1-1h30a1 1 0 0 1 1 1v19a1 1 0 0 1-1 1z" class="aiconic-folder-bottom aiconic-property-fill"/></g></svg><view id="tags" viewBox="32 0 32 32"/><svg width="32" height="32" data-icon="tags" class="biconic biconic-tags biconic-size-md" viewBox="0 0 32 32" x="32" xmlns="http://www.w3.org/2000/svg"><title class="biconic-metadata">Tags</title><defs><clipPath id="ba"><path d="M32 16L15 0h-3l17 16-8.5 8.5L22 26z"/></clipPath><clipPath id="bb"><path d="M10 0H0v10l17 16 10-10L10 0zM6 8a2 2 0 1 1-.001-3.999A2 2 0 0 1 6 8z"/></clipPath></defs><g class="biconic-container" data-width="32" data-height="26" transform="translate(0 3)"><path d="M5 .5v9c0 .276.163.653.364.843l16.272 15.315a.52.52 0 0 0 .718-.011l9.293-9.293a.481.481 0 0 0-.011-.696L15.364.343A1.455 1.455 0 0 0 14.5 0h-9a.5.5 0 0 0-.5.5z" clip-path="url(#ba)" class="biconic-tags-back biconic-property-accent biconic-property-fill"/><path d="M9.5 0h-9a.5.5 0 0 0-.5.5v9c0 .276.163.653.364.843l16.272 15.315a.52.52 0 0 0 .718-.011l9.293-9.293a.481.481 0 0 0-.011-.696L10.364.343A1.455 1.455 0 0 0 9.5 0z" clip-path="url(#bb)" class="biconic-tags-front biconic-property-fill"/></g></svg></svg>